<svg xmlns="http://www.w3.org/2000/svg" xmlns:xlink="http://www.w3.org/1999/xlink" width="350" zoomAndPan="magnify" viewBox="0 0 262.5 51.749998" height="69" preserveAspectRatio="xMidYMid meet" version="1.0"><defs><g/><clipPath id="d41ff80e40"><path d="M 0.382812 0 L 261.621094 0 L 261.621094 51.5 L 0.382812 51.5 Z M 0.382812 0 " clip-rule="nonzero"/></clipPath></defs><g clip-path="url(#d41ff80e40)"><path fill="#ffffff" d="M 0.382812 0 L 261.621094 0 L 261.621094 51.5 L 0.382812 51.5 Z M 0.382812 0 " fill-opacity="1" fill-rule="nonzero"/><path fill="#ffffff" d="M 0.382812 0 L 261.621094 0 L 261.621094 51.5 L 0.382812 51.5 Z M 0.382812 0 " fill-opacity="1" fill-rule="nonzero"/></g><g fill="#336874" fill-opacity="1"><g transform="translate(1.996274, 38.082192)"><g><path d="M 14.261719 0.292969 C 20.964844 0.292969 24.785156 -3.003906 24.785156 -8.171875 C 24.785156 -14.535156 19.492188 -15.777344 14.746094 -16.785156 C 10.796875 -17.601562 6.847656 -18.464844 6.847656 -22.351562 C 6.847656 -25.355469 9.328125 -27.246094 13.464844 -27.246094 C 16.992188 -27.246094 19.765625 -25.691406 20.480469 -22.855469 C 20.542969 -22.6875 20.648438 -22.601562 20.773438 -22.601562 L 23.503906 -22.601562 C 23.652344 -22.601562 23.757812 -22.707031 23.714844 -22.855469 C 22.917969 -27.558594 18.84375 -30.039062 13.632812 -30.039062 C 7.75 -30.039062 3.425781 -27.140625 3.425781 -22.222656 C 3.425781 -16.953125 7.75 -15.523438 11.972656 -14.597656 C 16.53125 -13.570312 21.34375 -12.875 21.34375 -8.066406 C 21.34375 -4.539062 18.632812 -2.5 14.15625 -2.5 C 10.1875 -2.5 6.699219 -3.800781 5.859375 -7.878906 C 5.820312 -8.046875 5.714844 -8.109375 5.585938 -8.109375 L 2.6875 -8.109375 C 2.519531 -8.109375 2.4375 -8.023438 2.457031 -7.855469 C 3.277344 -1.679688 8.695312 0.292969 14.261719 0.292969 Z M 14.261719 0.292969 "/></g></g></g><g fill="#336874" fill-opacity="1"><g transform="translate(29.36559, 38.082192)"><g><path d="M 7.582031 0 L 9.789062 0 C 9.914062 0 10.0625 -0.0859375 10.082031 -0.1875 L 15.734375 -17.121094 L 21.363281 -0.1875 C 21.382812 -0.0859375 21.53125 0 21.65625 0 L 23.839844 0 C 23.96875 0 24.136719 -0.0859375 24.15625 -0.210938 L 30.121094 -20.734375 C 30.164062 -20.902344 30.101562 -20.984375 29.933594 -20.984375 L 27.453125 -20.984375 C 27.308594 -20.984375 27.160156 -20.921875 27.160156 -20.773438 L 22.601562 -4.265625 L 17.078125 -20.796875 C 17.058594 -20.921875 16.910156 -20.984375 16.785156 -20.984375 L 14.664062 -20.984375 C 14.535156 -20.984375 14.390625 -20.902344 14.367188 -20.773438 L 8.84375 -4.242188 L 4.328125 -20.753906 C 4.304688 -20.902344 4.160156 -20.984375 4.03125 -20.984375 L 1.535156 -20.984375 C 1.367188 -20.984375 1.300781 -20.902344 1.34375 -20.734375 L 7.269531 -0.210938 C 7.308594 -0.0859375 7.457031 0 7.582031 0 Z M 7.582031 0 "/></g></g></g><g fill="#336874" fill-opacity="1"><g transform="translate(60.851856, 38.082192)"><g><path d="M 5.167969 -25.710938 C 6.34375 -25.710938 7.332031 -26.699219 7.332031 -27.9375 C 7.332031 -29.113281 6.34375 -30.121094 5.167969 -30.121094 C 3.929688 -30.121094 2.941406 -29.136719 2.941406 -27.9375 C 2.941406 -26.699219 3.929688 -25.710938 5.167969 -25.710938 Z M 4.03125 0 L 6.34375 0 C 6.511719 0 6.597656 -0.105469 6.597656 -0.253906 L 6.597656 -20.734375 C 6.597656 -20.902344 6.511719 -20.984375 6.34375 -20.984375 L 4.03125 -20.984375 C 3.886719 -20.984375 3.78125 -20.902344 3.78125 -20.734375 L 3.78125 -0.253906 C 3.78125 -0.105469 3.886719 0 4.03125 0 Z M 4.03125 0 "/></g></g></g><g fill="#336874" fill-opacity="1"><g transform="translate(71.249255, 38.082192)"><g><path d="M 14.390625 -21.300781 C 11.050781 -21.300781 8.023438 -19.429688 6.597656 -16.175781 L 6.597656 -20.734375 C 6.597656 -20.878906 6.511719 -20.984375 6.34375 -20.984375 L 4.03125 -20.984375 C 3.886719 -20.984375 3.78125 -20.878906 3.78125 -20.734375 L 3.78125 8.445312 C 3.78125 8.613281 3.886719 8.695312 4.03125 8.695312 L 6.34375 8.695312 C 6.511719 8.695312 6.597656 8.613281 6.597656 8.445312 L 6.597656 -4.808594 C 8.023438 -1.511719 11.007812 0.335938 14.324219 0.335938 C 19.492188 0.335938 23.085938 -4.03125 23.085938 -10.417969 C 23.085938 -16.722656 19.621094 -21.300781 14.390625 -21.300781 Z M 13.527344 -2.246094 C 9.347656 -2.246094 6.300781 -5.734375 6.300781 -10.441406 C 6.300781 -15.1875 9.347656 -18.675781 13.527344 -18.675781 C 17.707031 -18.675781 20.230469 -15.167969 20.230469 -10.441406 C 20.230469 -5.777344 17.707031 -2.246094 13.527344 -2.246094 Z M 13.527344 -2.246094 "/></g></g></g><g fill="#336874" fill-opacity="1"><g transform="translate(96.539092, 38.082192)"><g><path d="M 22.265625 -11.113281 C 21.972656 -17.667969 17.496094 -21.320312 12.164062 -21.320312 C 5.753906 -21.320312 2.058594 -16.214844 2.058594 -10.441406 C 2.058594 -4.265625 6.195312 0.292969 12.246094 0.292969 C 17.519531 0.292969 20.964844 -2.855469 21.953125 -7.164062 C 21.992188 -7.289062 21.886719 -7.375 21.71875 -7.375 L 19.367188 -7.375 C 19.261719 -7.375 19.136719 -7.308594 19.074219 -7.164062 C 18.359375 -4.265625 15.839844 -2.144531 12.226562 -2.144531 C 8.191406 -2.144531 5.210938 -5.1875 4.9375 -9.871094 L 22.035156 -9.871094 C 22.183594 -9.871094 22.289062 -9.9375 22.308594 -10.125 C 22.308594 -10.480469 22.308594 -10.796875 22.265625 -11.113281 Z M 12.246094 -18.925781 C 16.132812 -18.925781 19.242188 -16.070312 19.515625 -11.890625 L 5 -11.890625 C 5.484375 -16.113281 8.296875 -18.925781 12.246094 -18.925781 Z M 12.246094 -18.925781 "/></g></g></g><g fill="#000000" fill-opacity="1"><g transform="translate(120.914639, 38.082192)"><g/></g></g><g fill="#2e4249" fill-opacity="1"><g transform="translate(132.029044, 38.082192)"><g><path d="M 16.550781 0.316406 C 24.28125 0.316406 28.609375 -4.539062 29.847656 -10.816406 C 29.871094 -10.964844 29.785156 -11.050781 29.617188 -11.050781 L 26.78125 -11.050781 C 26.675781 -11.050781 26.574219 -10.964844 26.507812 -10.816406 C 25.417969 -5.902344 22.121094 -2.4375 16.550781 -2.4375 C 9.664062 -2.4375 6.15625 -7.75 6.15625 -14.851562 C 6.15625 -21.929688 9.664062 -27.246094 16.550781 -27.246094 C 22.121094 -27.246094 25.417969 -23.777344 26.507812 -18.863281 C 26.574219 -18.714844 26.675781 -18.632812 26.78125 -18.632812 L 29.617188 -18.632812 C 29.785156 -18.632812 29.871094 -18.738281 29.847656 -18.90625 C 28.589844 -25.164062 24.242188 -29.996094 16.550781 -29.996094 C 7.269531 -29.996094 2.878906 -22.9375 2.878906 -14.851562 C 2.878906 -6.765625 7.269531 0.316406 16.550781 0.316406 Z M 16.550781 0.316406 "/></g></g></g><g fill="#2e4249" fill-opacity="1"><g transform="translate(164.460527, 38.082192)"><g><path d="M 8.421875 0 L 10.375 0 C 10.523438 0 10.628906 -0.105469 10.628906 -0.253906 L 10.628906 -2.101562 C 10.628906 -2.246094 10.523438 -2.351562 10.375 -2.351562 L 9.054688 -2.351562 C 6.890625 -2.351562 6.40625 -3.046875 6.40625 -5.714844 L 6.40625 -29.429688 C 6.40625 -29.597656 6.300781 -29.679688 6.15625 -29.679688 L 3.84375 -29.679688 C 3.675781 -29.679688 3.59375 -29.597656 3.59375 -29.429688 L 3.59375 -5.273438 C 3.59375 -1.429688 4.832031 0 8.421875 0 Z M 8.421875 0 "/></g></g></g><g fill="#2e4249" fill-opacity="1"><g transform="translate(176.076208, 38.082192)"><g><path d="M 22.265625 -11.113281 C 21.972656 -17.667969 17.496094 -21.320312 12.164062 -21.320312 C 5.753906 -21.320312 2.058594 -16.214844 2.058594 -10.441406 C 2.058594 -4.265625 6.195312 0.292969 12.246094 0.292969 C 17.519531 0.292969 20.964844 -2.855469 21.953125 -7.164062 C 21.992188 -7.289062 21.886719 -7.375 21.71875 -7.375 L 19.367188 -7.375 C 19.261719 -7.375 19.136719 -7.308594 19.074219 -7.164062 C 18.359375 -4.265625 15.839844 -2.144531 12.226562 -2.144531 C 8.191406 -2.144531 5.210938 -5.1875 4.9375 -9.871094 L 22.035156 -9.871094 C 22.183594 -9.871094 22.289062 -9.9375 22.308594 -10.125 C 22.308594 -10.480469 22.308594 -10.796875 22.265625 -11.113281 Z M 12.246094 -18.925781 C 16.132812 -18.925781 19.242188 -16.070312 19.515625 -11.890625 L 5 -11.890625 C 5.484375 -16.113281 8.296875 -18.925781 12.246094 -18.925781 Z M 12.246094 -18.925781 "/></g></g></g><g fill="#2e4249" fill-opacity="1"><g transform="translate(200.441831, 38.082192)"><g><path d="M 11.238281 -21.320312 C 6.785156 -21.320312 3.445312 -19.117188 3.003906 -14.117188 C 2.984375 -13.949219 3.085938 -13.863281 3.257812 -13.863281 L 5.546875 -13.863281 C 5.714844 -13.863281 5.796875 -13.925781 5.820312 -14.117188 C 6.089844 -17.328125 8.023438 -18.96875 11.28125 -18.96875 C 14.808594 -18.96875 16.699219 -17.058594 16.699219 -13.316406 L 16.699219 -12.097656 L 11.257812 -12.097656 C 5.566406 -12.097656 2.183594 -10.3125 2.183594 -5.820312 C 2.183594 -1.953125 5.019531 0.316406 9.746094 0.316406 C 13.339844 0.316406 15.4375 -0.796875 16.699219 -3.527344 L 16.699219 -0.253906 C 16.699219 -0.105469 16.804688 0 16.972656 0 L 19.285156 0 C 19.429688 0 19.535156 -0.105469 19.535156 -0.253906 L 19.535156 -13.296875 C 19.535156 -18.675781 16.152344 -21.320312 11.238281 -21.320312 Z M 10.335938 -2.015625 C 6.933594 -2.015625 5.019531 -3.527344 5.019531 -6.007812 C 5.019531 -8.632812 7.035156 -9.683594 11.300781 -9.683594 L 16.699219 -9.683594 L 16.699219 -9.367188 C 16.699219 -5.714844 14.726562 -2.015625 10.335938 -2.015625 Z M 10.335938 -2.015625 "/></g></g></g><g fill="#2e4249" fill-opacity="1"><g transform="translate(223.211085, 38.082192)"><g><path d="M 12.980469 -21.320312 C 10.375 -21.320312 8.085938 -20.207031 6.597656 -17.75 L 6.597656 -20.734375 C 6.597656 -20.902344 6.511719 -20.984375 6.34375 -20.984375 L 4.03125 -20.984375 C 3.886719 -20.984375 3.78125 -20.902344 3.78125 -20.734375 L 3.78125 -0.253906 C 3.78125 -0.105469 3.886719 0 4.03125 0 L 6.34375 0 C 6.511719 0 6.597656 -0.105469 6.597656 -0.253906 L 6.597656 -12.058594 C 6.597656 -15.460938 8.382812 -18.695312 12.226562 -18.695312 C 15.839844 -18.695312 17.289062 -16.300781 17.289062 -12.855469 L 17.289062 -0.253906 C 17.289062 -0.105469 17.394531 0 17.539062 0 L 19.851562 0 C 20.019531 0 20.101562 -0.105469 20.101562 -0.253906 L 20.101562 -13.464844 C 20.101562 -17.246094 18.570312 -21.320312 12.980469 -21.320312 Z M 12.980469 -21.320312 "/></g></g></g><g fill="#d4e8ed" fill-opacity="1"><g transform="translate(246.642741, 38.082192)"><g><path d="M 6.699219 0.421875 C 7.855469 0.421875 8.800781 -0.546875 8.800781 -1.722656 C 8.800781 -2.855469 7.855469 -3.824219 6.699219 -3.824219 C 5.523438 -3.824219 4.558594 -2.878906 4.558594 -1.722656 C 4.558594 -0.523438 5.523438 0.421875 6.699219 0.421875 Z M 6.699219 0.421875 "/></g></g></g></svg>