<svg xmlns="http://www.w3.org/2000/svg" enable-background="new 0 0 512 512" viewBox="0 0 512 512" id="washing-machine"><path fill="#9dcafc" d="M336,11l28.467,60L336,131l-120,9.6L56,131V41c0-16.57,13.43-30,30-30H336z"></path><circle cx="276" cy="71" r="20" fill="#fff"></circle><circle cx="196" cy="71" r="20" fill="#fff"></circle><circle cx="116" cy="71" r="20" fill="#fff"></circle><path fill="#9dcafc" d="M456 41v90l-52.067 13.867L336 131V11h90C442.57 11 456 24.43 456 41zM456 421v10c0 16.57-13.43 30-30 30h-20l-21.8 9.2L356 461H156l-25 9.2-25-9.2H86c-16.57 0-30-13.43-30-30v-10l200.22-10.8L456 421z"></path><path fill="#fff" d="M456,131v290H56V131C70.914,131,435.459,131,456,131z"></path><circle cx="256" cy="276.5" r="104.5" fill="#fff"></circle><path fill="#fff" d="M292,264.8l-99.81,4.23c-0.29,2.45-0.44,4.94-0.44,7.47c0,35.48,28.77,64.25,64.25,64.25
			c32.95,0,60.12-24.82,63.81-56.78L292,264.8z"></path><polygon fill="#fff" points="406 461 406 501 366 501 356 461"></polygon><polygon fill="#fff" points="156 461 146 501 106 501 106 461"></polygon><path fill="#9dcafc" d="M320.25,276.5c0,2.53-0.15,5.02-0.44,7.47l-20.98-7.47c-14.18-5.06-29.37-4.8-42.83,0
			c-13.86,4.93-28.99,4.93-42.84,0l-20.97-7.47c3.69-31.96,30.86-56.78,63.81-56.78C291.48,212.25,320.25,241.02,320.25,276.5z"></path><path fill="#4269a7" d="M426,1H86C63.944,1,46,18.944,46,41v390c0,22.056,17.944,40,40,40h10v30c0,5.523,4.477,10,10,10
				h40c4.589,0,8.588-3.123,9.702-7.575L163.808,471h184.384l8.106,32.425c1.113,4.452,5.113,7.575,9.702,7.575h40
				c5.523,0,10-4.477,10-10v-30h10c22.056,0,40-17.944,40-40V41C466,18.944,448.056,1,426,1z M66,141h380v270H66V141z M446,41v80
				H346V21h80C437.028,21,446,29.972,446,41z M86,21h240v100H66V41C66,29.972,74.972,21,86,21z M138.192,491H116v-20h27.192
				L138.192,491z M396,491h-22.192l-5-20H396V491z M426,451c-11.263,0-327.284,0-340,0c-11.028,0-20-8.972-20-20h380
				C446,442.028,437.028,451,426,451z"></path><path fill="#4269a7" d="M116 101c16.542 0 30-13.458 30-30s-13.458-30-30-30S86 54.458 86 71 99.458 101 116 101zM116 61c5.514 0 10 4.486 10 10s-4.486 10-10 10-10-4.486-10-10S110.486 61 116 61zM196 101c16.542 0 30-13.458 30-30s-13.458-30-30-30-30 13.458-30 30S179.458 101 196 101zM196 61c5.514 0 10 4.486 10 10s-4.486 10-10 10-10-4.486-10-10S190.486 61 196 61zM276 101c16.542 0 30-13.458 30-30s-13.458-30-30-30-30 13.458-30 30S259.458 101 276 101zM276 61c5.514 0 10 4.486 10 10s-4.486 10-10 10-10-4.486-10-10S270.486 61 276 61zM256 162c-63.136 0-114.5 51.364-114.5 114.5S192.864 391 256 391s114.5-51.364 114.5-114.5S319.136 162 256 162zM256 371c-52.107 0-94.5-42.393-94.5-94.5S203.893 182 256 182s94.5 42.393 94.5 94.5S308.107 371 256 371z"></path><path fill="#4269a7" d="M330.25,276.5c0-40.941-33.309-74.25-74.25-74.25c-41.14,0-74.25,33.563-74.25,74.25
				c0,40.941,33.309,74.25,74.25,74.25C297.145,350.75,330.25,317.181,330.25,276.5z M256,222.25
				c27.644,0,50.508,20.788,53.821,47.55c-3.659-0.748-27.042-13.473-57.176-2.72c-11.65,4.149-24.48,4.149-36.125,0l-12.922-4.603
				C209.796,239.34,230.935,222.25,256,222.25z M256,330.75c-27.643,0-50.507-20.787-53.821-47.548
				c3.673,0.75,26.994,13.464,57.182,2.716c11.643-4.154,24.464-4.154,36.113,0.002l12.928,4.604
				C302.204,313.66,281.064,330.75,256,330.75z"></path><circle cx="396.002" cy="70.984" r="10.016" fill="#4269a7"></circle></svg>